<svg width="498" height="124" viewBox="0 0 498 124" fill="none" xmlns="http://www.w3.org/2000/svg">
<path d="M118.655 65.952C118.655 62.1973 119.423 58.9333 120.959 56.16C122.538 53.344 124.714 51.1893 127.487 49.696C130.303 48.2027 133.503 47.456 137.087 47.456C141.78 47.456 145.727 48.7787 148.927 51.424C152.17 54.0693 154.218 57.7387 155.071 62.432H140.031C139.476 60.5547 138.388 59.616 136.767 59.616C135.615 59.616 134.698 60.1493 134.015 61.216C133.375 62.2827 133.055 63.8613 133.055 65.952C133.055 68.0427 133.375 69.6213 134.015 70.688C134.698 71.7547 135.615 72.288 136.767 72.288C138.388 72.288 139.476 71.3493 140.031 69.472H155.071C154.218 74.1653 152.17 77.8347 148.927 80.48C145.727 83.1253 141.78 84.448 137.087 84.448C133.503 84.448 130.303 83.7013 127.487 82.208C124.714 80.7147 122.538 78.5813 120.959 75.808C119.423 72.992 118.655 69.7067 118.655 65.952ZM176.727 84.448C173.1 84.448 169.836 83.7013 166.935 82.208C164.034 80.7147 161.751 78.5813 160.087 75.808C158.466 72.992 157.655 69.7067 157.655 65.952C157.655 62.1973 158.466 58.9333 160.087 56.16C161.751 53.344 164.034 51.1893 166.935 49.696C169.836 48.2027 173.1 47.456 176.727 47.456C180.354 47.456 183.618 48.2027 186.519 49.696C189.42 51.1893 191.682 53.344 193.303 56.16C194.967 58.9333 195.799 62.1973 195.799 65.952C195.799 69.7067 194.967 72.992 193.303 75.808C191.682 78.5813 189.42 80.7147 186.519 82.208C183.618 83.7013 180.354 84.448 176.727 84.448ZM176.727 72.16C178.05 72.16 179.159 71.648 180.055 70.624C180.951 69.5573 181.399 68 181.399 65.952C181.399 63.904 180.951 62.368 180.055 61.344C179.159 60.2773 178.05 59.744 176.727 59.744C175.404 59.744 174.295 60.2773 173.399 61.344C172.503 62.368 172.055 63.904 172.055 65.952C172.055 68 172.482 69.5573 173.335 70.624C174.231 71.648 175.362 72.16 176.727 72.16ZM225.543 47.648C229.681 47.648 232.903 49.0347 235.207 51.808C237.553 54.5813 238.727 58.336 238.727 63.072V84H224.583V64.864C224.583 63.1573 224.113 61.8133 223.175 60.832C222.279 59.808 221.063 59.296 219.527 59.296C217.948 59.296 216.711 59.808 215.815 60.832C214.919 61.8133 214.471 63.1573 214.471 64.864V84H200.263V47.904H214.471V53.408C215.58 51.7013 217.052 50.3147 218.887 49.248C220.764 48.1813 222.983 47.648 225.543 47.648ZM267.352 71.904V84H261.976C252.077 84 247.128 79.072 247.128 69.216V59.744H242.648V47.904H247.128V39.2H261.336V47.904H267.224V59.744H261.336V69.472C261.336 70.3253 261.528 70.944 261.912 71.328C262.338 71.712 263.021 71.904 263.96 71.904H267.352ZM270.843 65.952C270.843 62.1547 271.483 58.8693 272.763 56.096C274.085 53.28 275.877 51.1467 278.139 49.696C280.4 48.2027 282.939 47.456 285.755 47.456C288.101 47.456 290.128 47.9467 291.835 48.928C293.541 49.8667 294.843 51.168 295.739 52.832V47.904H309.883V84H295.739V79.072C294.843 80.736 293.541 82.0587 291.835 83.04C290.128 83.9787 288.101 84.448 285.755 84.448C282.939 84.448 280.4 83.7227 278.139 82.272C275.877 80.7787 274.085 78.6453 272.763 75.872C271.483 73.056 270.843 69.7493 270.843 65.952ZM295.739 65.952C295.739 64.032 295.248 62.5387 294.267 61.472C293.285 60.4053 292.027 59.872 290.491 59.872C288.955 59.872 287.696 60.4053 286.715 61.472C285.733 62.5387 285.243 64.032 285.243 65.952C285.243 67.872 285.733 69.3653 286.715 70.432C287.696 71.4987 288.955 72.032 290.491 72.032C292.027 72.032 293.285 71.4987 294.267 70.432C295.248 69.3653 295.739 67.872 295.739 65.952ZM338.727 71.904V84H333.351C323.452 84 318.503 79.072 318.503 69.216V59.744H314.023V47.904H318.503V39.2H332.711V47.904H338.599V59.744H332.711V69.472C332.711 70.3253 332.903 70.944 333.287 71.328C333.713 71.712 334.396 71.904 335.335 71.904H338.727ZM361.29 84.448C357.663 84.448 354.399 83.7013 351.498 82.208C348.596 80.7147 346.314 78.5813 344.65 75.808C343.028 72.992 342.218 69.7067 342.218 65.952C342.218 62.1973 343.028 58.9333 344.65 56.16C346.314 53.344 348.596 51.1893 351.498 49.696C354.399 48.2027 357.663 47.456 361.29 47.456C364.916 47.456 368.18 48.2027 371.082 49.696C373.983 51.1893 376.244 53.344 377.866 56.16C379.53 58.9333 380.362 62.1973 380.362 65.952C380.362 69.7067 379.53 72.992 377.866 75.808C376.244 78.5813 373.983 80.7147 371.082 82.208C368.18 83.7013 364.916 84.448 361.29 84.448ZM361.29 72.16C362.612 72.16 363.722 71.648 364.618 70.624C365.514 69.5573 365.962 68 365.962 65.952C365.962 63.904 365.514 62.368 364.618 61.344C363.722 60.2773 362.612 59.744 361.29 59.744C359.967 59.744 358.858 60.2773 357.962 61.344C357.066 62.368 356.618 63.904 356.618 65.952C356.618 68 357.044 69.5573 357.898 70.624C358.794 71.648 359.924 72.16 361.29 72.16Z" fill="#FFAD26"/>
<line x1="466.414" y1="1" x2="497" y2="31.5858" stroke="#FFAD26" stroke-width="2" stroke-linecap="round"/>
<line x1="1" y1="-1" x2="44.2548" y2="-1" transform="matrix(-0.707107 0.707107 0.707107 0.707107 33 1)" stroke="#FFAD26" stroke-width="2" stroke-linecap="round"/>
<line x1="1" y1="-1" x2="44.2548" y2="-1" transform="matrix(0.707107 -0.707107 -0.707107 -0.707107 465 123)" stroke="#FFAD26" stroke-width="2" stroke-linecap="round"/>
<line x1="31.5858" y1="123" x2="1" y2="92.4142" stroke="#FFAD26" stroke-width="2" stroke-linecap="round"/>
</svg>
