<svg width="498" height="124" viewBox="0 0 498 124" fill="none" xmlns="http://www.w3.org/2000/svg">
<path d="M152.783 50.016V55.584H166.863V66.272H152.783V72.672H168.783V84H138.575V38.688H168.783V50.016H152.783ZM172.218 66.208C172.218 62.6667 172.943 59.488 174.394 56.672C175.844 53.856 177.786 51.6587 180.218 50.08C182.692 48.4587 185.338 47.648 188.154 47.648C190.074 47.648 191.759 47.9253 193.21 48.48C194.66 48.992 195.962 49.8667 197.114 51.104V47.904H211.258V101.28H197.114V80.032C195.834 81.5253 194.468 82.6347 193.018 83.36C191.61 84.0427 189.988 84.384 188.154 84.384C185.295 84.384 182.65 83.616 180.218 82.08C177.786 80.544 175.844 78.4107 174.394 75.68C172.943 72.9067 172.218 69.7493 172.218 66.208ZM197.114 65.952C197.114 63.8613 196.559 62.3467 195.45 61.408C194.383 60.4267 193.188 59.936 191.866 59.936C190.586 59.936 189.391 60.4693 188.282 61.536C187.172 62.56 186.618 64.1173 186.618 66.208C186.618 68.256 187.151 69.7493 188.218 70.688C189.327 71.584 190.543 72.032 191.866 72.032C193.188 72.032 194.383 71.5413 195.45 70.56C196.559 69.5787 197.114 68.0427 197.114 65.952ZM255.846 47.904V84H241.638V78.496C240.528 80.2027 239.035 81.5893 237.158 82.656C235.323 83.7227 233.126 84.256 230.566 84.256C226.427 84.256 223.184 82.8693 220.838 80.096C218.534 77.3227 217.382 73.568 217.382 68.832V47.904H231.526V67.04C231.526 68.7467 231.974 70.112 232.87 71.136C233.808 72.1173 235.046 72.608 236.582 72.608C238.16 72.608 239.398 72.1173 240.294 71.136C241.19 70.112 241.638 68.7467 241.638 67.04V47.904H255.846ZM269.431 45.024C266.956 45.024 264.972 44.3627 263.479 43.04C261.985 41.7173 261.239 40.0533 261.239 38.048C261.239 36 261.985 34.3147 263.479 32.992C264.972 31.6267 266.956 30.944 269.431 30.944C271.863 30.944 273.825 31.6267 275.319 32.992C276.812 34.3147 277.559 36 277.559 38.048C277.559 40.0533 276.812 41.7173 275.319 43.04C273.825 44.3627 271.863 45.024 269.431 45.024ZM276.471 47.904V84H262.263V47.904H276.471ZM297.096 52.832C297.992 51.168 299.272 49.8667 300.936 48.928C302.642 47.9467 304.669 47.456 307.016 47.456C309.832 47.456 312.37 48.2027 314.632 49.696C316.893 51.1467 318.664 53.28 319.944 56.096C321.266 58.8693 321.928 62.1547 321.928 65.952C321.928 69.7493 321.266 73.056 319.944 75.872C318.664 78.6453 316.893 80.7787 314.632 82.272C312.37 83.7227 309.832 84.448 307.016 84.448C304.669 84.448 302.642 83.9787 300.936 83.04C299.272 82.0587 297.992 80.736 297.096 79.072V101.28H282.888V47.904H297.096V52.832ZM307.528 65.952C307.528 64.032 307.037 62.5387 306.056 61.472C305.074 60.4053 303.816 59.872 302.28 59.872C300.744 59.872 299.485 60.4053 298.503 61.472C297.522 62.5387 297.032 64.032 297.032 65.952C297.032 67.872 297.522 69.3653 298.503 70.432C299.485 71.4987 300.744 72.032 302.28 72.032C303.816 72.032 305.074 71.4987 306.056 70.432C307.037 69.3653 307.528 67.872 307.528 65.952ZM361.332 65.632C361.332 66.6133 361.268 67.552 361.14 68.448H338.292C338.505 71.5627 339.806 73.12 342.196 73.12C343.732 73.12 344.841 72.416 345.524 71.008H360.564C360.052 73.568 358.964 75.872 357.3 77.92C355.678 79.9253 353.609 81.5253 351.092 82.72C348.617 83.872 345.886 84.448 342.9 84.448C339.316 84.448 336.116 83.7013 333.3 82.208C330.526 80.7147 328.35 78.5813 326.772 75.808C325.236 72.992 324.468 69.7067 324.468 65.952C324.468 62.1973 325.236 58.9333 326.772 56.16C328.35 53.344 330.526 51.1893 333.3 49.696C336.116 48.2027 339.316 47.456 342.9 47.456C346.484 47.456 349.662 48.2027 352.436 49.696C355.252 51.1467 357.428 53.2373 358.964 55.968C360.542 58.6987 361.332 61.92 361.332 65.632ZM346.932 62.24C346.932 61.0453 346.548 60.1493 345.78 59.552C345.012 58.912 344.052 58.592 342.9 58.592C340.382 58.592 338.91 59.808 338.484 62.24H346.932Z" fill="#FFAD26"/>
<line x1="466.414" y1="1" x2="497" y2="31.5858" stroke="#FFAD26" stroke-width="2" stroke-linecap="round"/>
<line x1="1" y1="-1" x2="44.2548" y2="-1" transform="matrix(-0.707107 0.707107 0.707107 0.707107 33 1)" stroke="#FFAD26" stroke-width="2" stroke-linecap="round"/>
<line x1="1" y1="-1" x2="44.2548" y2="-1" transform="matrix(0.707107 -0.707107 -0.707107 -0.707107 465 123)" stroke="#FFAD26" stroke-width="2" stroke-linecap="round"/>
<line x1="31.5858" y1="123" x2="1" y2="92.4142" stroke="#FFAD26" stroke-width="2" stroke-linecap="round"/>
</svg>
