<svg width="323" height="124" viewBox="0 0 323 124" fill="none" xmlns="http://www.w3.org/2000/svg">
<path d="M150.683 54.26V74H142.913V70.99C142.306 71.9233 141.49 72.6817 140.463 73.265C139.46 73.8483 138.258 74.14 136.858 74.14C134.595 74.14 132.821 73.3817 131.538 71.865C130.278 70.3483 129.648 68.295 129.648 65.705V54.26H137.383V64.725C137.383 65.6583 137.628 66.405 138.118 66.965C138.631 67.5017 139.308 67.77 140.148 67.77C141.011 67.77 141.688 67.5017 142.178 66.965C142.668 66.405 142.913 65.6583 142.913 64.725V54.26H150.683ZM162.977 74.245C161.111 74.245 159.454 73.9417 158.007 73.335C156.584 72.7283 155.452 71.8883 154.612 70.815C153.772 69.7417 153.294 68.5283 153.177 67.175H160.632C160.726 67.7583 160.971 68.19 161.367 68.47C161.787 68.75 162.312 68.89 162.942 68.89C163.339 68.89 163.654 68.8083 163.887 68.645C164.121 68.4583 164.237 68.2367 164.237 67.98C164.237 67.5367 163.992 67.2217 163.502 67.035C163.012 66.8483 162.184 66.6383 161.017 66.405C159.594 66.125 158.416 65.8217 157.482 65.495C156.572 65.1683 155.767 64.6083 155.067 63.815C154.391 63.0217 154.052 61.925 154.052 60.525C154.052 59.3117 154.367 58.215 154.997 57.235C155.651 56.2317 156.607 55.45 157.867 54.89C159.127 54.3067 160.656 54.015 162.452 54.015C165.112 54.015 167.189 54.6683 168.682 55.975C170.199 57.2817 171.109 58.985 171.412 61.085H164.517C164.401 60.5483 164.156 60.14 163.782 59.86C163.409 59.5567 162.907 59.405 162.277 59.405C161.881 59.405 161.577 59.4867 161.367 59.65C161.157 59.79 161.052 60.0117 161.052 60.315C161.052 60.7117 161.297 61.015 161.787 61.225C162.277 61.4117 163.059 61.61 164.132 61.82C165.556 62.1 166.757 62.415 167.737 62.765C168.717 63.115 169.569 63.7217 170.292 64.585C171.016 65.425 171.377 66.5917 171.377 68.085C171.377 69.2517 171.039 70.3017 170.362 71.235C169.686 72.1683 168.706 72.9033 167.422 73.44C166.162 73.9767 164.681 74.245 162.977 74.245ZM183.841 74.245C181.858 74.245 180.073 73.8367 178.486 73.02C176.899 72.2033 175.651 71.0367 174.741 69.52C173.854 67.98 173.411 66.1833 173.411 64.13C173.411 62.0767 173.854 60.2917 174.741 58.775C175.651 57.235 176.899 56.0567 178.486 55.24C180.073 54.4233 181.858 54.015 183.841 54.015C185.824 54.015 187.609 54.4233 189.196 55.24C190.783 56.0567 192.019 57.235 192.906 58.775C193.816 60.2917 194.271 62.0767 194.271 64.13C194.271 66.1833 193.816 67.98 192.906 69.52C192.019 71.0367 190.783 72.2033 189.196 73.02C187.609 73.8367 185.824 74.245 183.841 74.245ZM183.841 67.525C184.564 67.525 185.171 67.245 185.661 66.685C186.151 66.1017 186.396 65.25 186.396 64.13C186.396 63.01 186.151 62.17 185.661 61.61C185.171 61.0267 184.564 60.735 183.841 60.735C183.118 60.735 182.511 61.0267 182.021 61.61C181.531 62.17 181.286 63.01 181.286 64.13C181.286 65.25 181.519 66.1017 181.986 66.685C182.476 67.245 183.094 67.525 183.841 67.525Z" fill="#FFAD26"/>
<line x1="291.414" y1="1" x2="322" y2="31.5858" stroke="#FFAD26" stroke-width="2" stroke-linecap="round"/>
<line x1="1" y1="-1" x2="44.2548" y2="-1" transform="matrix(-0.707107 0.707107 0.707107 0.707107 33 1)" stroke="#FFAD26" stroke-width="2" stroke-linecap="round"/>
<line x1="1" y1="-1" x2="44.2548" y2="-1" transform="matrix(0.707107 -0.707107 -0.707107 -0.707107 290 123)" stroke="#FFAD26" stroke-width="2" stroke-linecap="round"/>
<line x1="31.5858" y1="123" x2="1" y2="92.4142" stroke="#FFAD26" stroke-width="2" stroke-linecap="round"/>
</svg>
